<mxfile host="app.diagrams.net" agent="Mozilla/5.0 (Windows NT 10.0; Win64; x64) AppleWebKit/537.36 (KHTML, like Gecko) Chrome/134.0.0.0 Safari/537.36" version="24.7.6">
  <diagram name="Page-1" id="sdM-dfVRE8lZ5QKyonox">
    <mxGraphModel dx="1434" dy="746" grid="1" gridSize="10" guides="1" tooltips="1" connect="1" arrows="1" fold="1" page="1" pageScale="1" pageWidth="1100" pageHeight="850" math="0" shadow="0">
      <root>
        <mxCell id="0" />
        <mxCell id="1" parent="0" />
        <mxCell id="R3WLTpnzbW-Txjo8wwRz-44" value="" style="rounded=0;whiteSpace=wrap;html=1;" vertex="1" parent="1">
          <mxGeometry x="55" y="60" width="990" height="580" as="geometry" />
        </mxCell>
        <mxCell id="R3WLTpnzbW-Txjo8wwRz-2" value="" style="whiteSpace=wrap;html=1;aspect=fixed;" vertex="1" parent="1">
          <mxGeometry x="280" y="120" width="480" height="480" as="geometry" />
        </mxCell>
        <mxCell id="R3WLTpnzbW-Txjo8wwRz-3" value="List1" style="rounded=1;whiteSpace=wrap;html=1;" vertex="1" parent="1">
          <mxGeometry x="280" y="90" width="70" height="30" as="geometry" />
        </mxCell>
        <mxCell id="R3WLTpnzbW-Txjo8wwRz-4" value="List2" style="rounded=1;whiteSpace=wrap;html=1;" vertex="1" parent="1">
          <mxGeometry x="350" y="90" width="70" height="30" as="geometry" />
        </mxCell>
        <mxCell id="R3WLTpnzbW-Txjo8wwRz-5" value="List3" style="rounded=1;whiteSpace=wrap;html=1;" vertex="1" parent="1">
          <mxGeometry x="420" y="90" width="70" height="30" as="geometry" />
        </mxCell>
        <mxCell id="R3WLTpnzbW-Txjo8wwRz-6" value="List4" style="rounded=1;whiteSpace=wrap;html=1;" vertex="1" parent="1">
          <mxGeometry x="490" y="90" width="70" height="30" as="geometry" />
        </mxCell>
        <mxCell id="R3WLTpnzbW-Txjo8wwRz-8" value="&lt;font style=&quot;font-size: 16px;&quot;&gt;&lt;b&gt;Title of my list&lt;/b&gt;&lt;/font&gt;" style="rounded=0;whiteSpace=wrap;html=1;" vertex="1" parent="1">
          <mxGeometry x="280" y="120" width="480" height="60" as="geometry" />
        </mxCell>
        <mxCell id="R3WLTpnzbW-Txjo8wwRz-9" value="&lt;b&gt;&lt;font style=&quot;font-size: 14px;&quot;&gt;+&lt;/font&gt;&lt;/b&gt;" style="rounded=1;whiteSpace=wrap;html=1;" vertex="1" parent="1">
          <mxGeometry x="560" y="90" width="30" height="30" as="geometry" />
        </mxCell>
        <mxCell id="R3WLTpnzbW-Txjo8wwRz-10" value="Create a task..." style="rounded=1;whiteSpace=wrap;html=1;" vertex="1" parent="1">
          <mxGeometry x="410" y="200" width="170" height="30" as="geometry" />
        </mxCell>
        <mxCell id="R3WLTpnzbW-Txjo8wwRz-12" value="Add" style="rounded=1;whiteSpace=wrap;html=1;" vertex="1" parent="1">
          <mxGeometry x="580" y="200" width="55" height="30" as="geometry" />
        </mxCell>
        <mxCell id="R3WLTpnzbW-Txjo8wwRz-13" value="" style="ellipse;whiteSpace=wrap;html=1;aspect=fixed;" vertex="1" parent="1">
          <mxGeometry x="350" y="250" width="20" height="20" as="geometry" />
        </mxCell>
        <mxCell id="R3WLTpnzbW-Txjo8wwRz-14" value="Task 1" style="rounded=0;whiteSpace=wrap;html=1;opacity=0;align=left;" vertex="1" parent="1">
          <mxGeometry x="380" y="250" width="190" height="20" as="geometry" />
        </mxCell>
        <mxCell id="R3WLTpnzbW-Txjo8wwRz-16" value="" style="shape=image;verticalLabelPosition=bottom;labelBackgroundColor=default;verticalAlign=top;aspect=fixed;imageAspect=0;image=https://css-tricks.com/wp-content/uploads/2012/10/threelines.png;" vertex="1" parent="1">
          <mxGeometry x="660" y="250" width="30" height="20" as="geometry" />
        </mxCell>
        <mxCell id="R3WLTpnzbW-Txjo8wwRz-17" value="" style="shape=image;verticalLabelPosition=bottom;labelBackgroundColor=default;verticalAlign=top;aspect=fixed;imageAspect=0;image=https://css-tricks.com/wp-content/uploads/2012/10/threelines.png;" vertex="1" parent="1">
          <mxGeometry x="660" y="290" width="30" height="20" as="geometry" />
        </mxCell>
        <mxCell id="R3WLTpnzbW-Txjo8wwRz-18" value="" style="shape=image;verticalLabelPosition=bottom;labelBackgroundColor=default;verticalAlign=top;aspect=fixed;imageAspect=0;image=https://css-tricks.com/wp-content/uploads/2012/10/threelines.png;" vertex="1" parent="1">
          <mxGeometry x="660" y="330" width="30" height="20" as="geometry" />
        </mxCell>
        <mxCell id="R3WLTpnzbW-Txjo8wwRz-19" value="" style="shape=image;verticalLabelPosition=bottom;labelBackgroundColor=default;verticalAlign=top;aspect=fixed;imageAspect=0;image=https://css-tricks.com/wp-content/uploads/2012/10/threelines.png;" vertex="1" parent="1">
          <mxGeometry x="660" y="370" width="30" height="20" as="geometry" />
        </mxCell>
        <mxCell id="R3WLTpnzbW-Txjo8wwRz-20" value="" style="shape=image;verticalLabelPosition=bottom;labelBackgroundColor=default;verticalAlign=top;aspect=fixed;imageAspect=0;image=https://css-tricks.com/wp-content/uploads/2012/10/threelines.png;" vertex="1" parent="1">
          <mxGeometry x="660" y="410" width="30" height="20" as="geometry" />
        </mxCell>
        <mxCell id="R3WLTpnzbW-Txjo8wwRz-21" value="" style="ellipse;whiteSpace=wrap;html=1;aspect=fixed;" vertex="1" parent="1">
          <mxGeometry x="350" y="290" width="20" height="20" as="geometry" />
        </mxCell>
        <mxCell id="R3WLTpnzbW-Txjo8wwRz-22" value="Task 2" style="rounded=0;whiteSpace=wrap;html=1;opacity=0;align=left;" vertex="1" parent="1">
          <mxGeometry x="380" y="290" width="190" height="20" as="geometry" />
        </mxCell>
        <mxCell id="R3WLTpnzbW-Txjo8wwRz-23" value="" style="ellipse;whiteSpace=wrap;html=1;aspect=fixed;" vertex="1" parent="1">
          <mxGeometry x="350" y="330" width="20" height="20" as="geometry" />
        </mxCell>
        <mxCell id="R3WLTpnzbW-Txjo8wwRz-24" value="Task 3" style="rounded=0;whiteSpace=wrap;html=1;opacity=0;align=left;" vertex="1" parent="1">
          <mxGeometry x="380" y="330" width="190" height="20" as="geometry" />
        </mxCell>
        <mxCell id="R3WLTpnzbW-Txjo8wwRz-25" value="" style="ellipse;whiteSpace=wrap;html=1;aspect=fixed;" vertex="1" parent="1">
          <mxGeometry x="350" y="370" width="20" height="20" as="geometry" />
        </mxCell>
        <mxCell id="R3WLTpnzbW-Txjo8wwRz-26" value="Task 4" style="rounded=0;whiteSpace=wrap;html=1;opacity=0;align=left;" vertex="1" parent="1">
          <mxGeometry x="380" y="370" width="190" height="20" as="geometry" />
        </mxCell>
        <mxCell id="R3WLTpnzbW-Txjo8wwRz-27" value="" style="ellipse;whiteSpace=wrap;html=1;aspect=fixed;" vertex="1" parent="1">
          <mxGeometry x="350" y="410" width="20" height="20" as="geometry" />
        </mxCell>
        <mxCell id="R3WLTpnzbW-Txjo8wwRz-28" value="Task 5" style="rounded=0;whiteSpace=wrap;html=1;opacity=0;align=left;" vertex="1" parent="1">
          <mxGeometry x="380" y="410" width="190" height="20" as="geometry" />
        </mxCell>
        <mxCell id="R3WLTpnzbW-Txjo8wwRz-30" value="" style="shape=image;verticalLabelPosition=bottom;labelBackgroundColor=default;verticalAlign=top;aspect=fixed;imageAspect=0;image=https://images.icon-icons.com/2518/PNG/512/x_icon_150997.png;" vertex="1" parent="1">
          <mxGeometry x="635" y="249" width="22" height="22" as="geometry" />
        </mxCell>
        <mxCell id="R3WLTpnzbW-Txjo8wwRz-31" value="" style="shape=image;verticalLabelPosition=bottom;labelBackgroundColor=default;verticalAlign=top;aspect=fixed;imageAspect=0;image=https://images.icon-icons.com/2518/PNG/512/x_icon_150997.png;" vertex="1" parent="1">
          <mxGeometry x="635" y="289" width="22" height="22" as="geometry" />
        </mxCell>
        <mxCell id="R3WLTpnzbW-Txjo8wwRz-32" value="" style="shape=image;verticalLabelPosition=bottom;labelBackgroundColor=default;verticalAlign=top;aspect=fixed;imageAspect=0;image=https://images.icon-icons.com/2518/PNG/512/x_icon_150997.png;" vertex="1" parent="1">
          <mxGeometry x="635" y="329" width="22" height="22" as="geometry" />
        </mxCell>
        <mxCell id="R3WLTpnzbW-Txjo8wwRz-33" value="" style="shape=image;verticalLabelPosition=bottom;labelBackgroundColor=default;verticalAlign=top;aspect=fixed;imageAspect=0;image=https://images.icon-icons.com/2518/PNG/512/x_icon_150997.png;" vertex="1" parent="1">
          <mxGeometry x="635" y="369" width="22" height="22" as="geometry" />
        </mxCell>
        <mxCell id="R3WLTpnzbW-Txjo8wwRz-34" value="" style="shape=image;verticalLabelPosition=bottom;labelBackgroundColor=default;verticalAlign=top;aspect=fixed;imageAspect=0;image=https://images.icon-icons.com/2518/PNG/512/x_icon_150997.png;" vertex="1" parent="1">
          <mxGeometry x="635" y="409" width="22" height="22" as="geometry" />
        </mxCell>
        <mxCell id="R3WLTpnzbW-Txjo8wwRz-35" value="&lt;font style=&quot;font-size: 16px;&quot;&gt;&amp;nbsp;Completed&lt;/font&gt;" style="rounded=0;whiteSpace=wrap;html=1;align=left;" vertex="1" parent="1">
          <mxGeometry x="280" y="490" width="480" height="80" as="geometry" />
        </mxCell>
        <mxCell id="R3WLTpnzbW-Txjo8wwRz-36" value="" style="shape=image;verticalLabelPosition=bottom;labelBackgroundColor=default;verticalAlign=top;aspect=fixed;imageAspect=0;image=https://www.iconpacks.net/icons/2/free-arrow-down-icon-3101-thumb.png;" vertex="1" parent="1">
          <mxGeometry x="370" y="524" width="12" height="12" as="geometry" />
        </mxCell>
        <mxCell id="R3WLTpnzbW-Txjo8wwRz-37" value="" style="shape=image;verticalLabelPosition=bottom;labelBackgroundColor=default;verticalAlign=top;aspect=fixed;imageAspect=0;image=https://www.svgrepo.com/show/345223/three-dots-vertical.svg;" vertex="1" parent="1">
          <mxGeometry x="710" y="135" width="30" height="30" as="geometry" />
        </mxCell>
        <mxCell id="R3WLTpnzbW-Txjo8wwRz-38" value="" style="ellipse;whiteSpace=wrap;html=1;aspect=fixed;" vertex="1" parent="1">
          <mxGeometry x="385" y="441" width="20" height="20" as="geometry" />
        </mxCell>
        <mxCell id="R3WLTpnzbW-Txjo8wwRz-39" value="Task 5" style="rounded=0;whiteSpace=wrap;html=1;opacity=0;align=left;" vertex="1" parent="1">
          <mxGeometry x="415" y="441" width="190" height="20" as="geometry" />
        </mxCell>
        <mxCell id="R3WLTpnzbW-Txjo8wwRz-40" value="" style="shape=image;verticalLabelPosition=bottom;labelBackgroundColor=default;verticalAlign=top;aspect=fixed;imageAspect=0;image=https://css-tricks.com/wp-content/uploads/2012/10/threelines.png;" vertex="1" parent="1">
          <mxGeometry x="660" y="441" width="30" height="20" as="geometry" />
        </mxCell>
        <mxCell id="R3WLTpnzbW-Txjo8wwRz-41" value="" style="shape=image;verticalLabelPosition=bottom;labelBackgroundColor=default;verticalAlign=top;aspect=fixed;imageAspect=0;image=https://images.icon-icons.com/2518/PNG/512/x_icon_150997.png;" vertex="1" parent="1">
          <mxGeometry x="635" y="440" width="22" height="22" as="geometry" />
        </mxCell>
      </root>
    </mxGraphModel>
  </diagram>
</mxfile>
